<?xml version="1.0" encoding="utf-8"?>
<!-- Generator: Adobe Illustrator 15.0.0, SVG Export Plug-In . SVG Version: 6.00 Build 0)  -->
<!DOCTYPE svg PUBLIC "-//W3C//DTD SVG 1.1//EN" "http://www.w3.org/Graphics/SVG/1.1/DTD/svg11.dtd">
<svg version="1.1" id="Layer_1" xmlns="http://www.w3.org/2000/svg" xmlns:xlink="http://www.w3.org/1999/xlink" x="0px" y="0px"
	 width="72px" height="72px" viewBox="0 0 72 72" enable-background="new 0 0 72 72" xml:space="preserve">
<rect width="72" height="72"/>
<g>
	<path fill="#FFFFFF" d="M34.055,4.242v2.039H23.719v9.477h-7.266V6.281H6.07V4.242H34.055z"/>
	<path fill="#FFFFFF" d="M58.488,4.242h7.5L54.21,15.758h-6.819L35.707,4.242h7.711l7.5,8.742L58.488,4.242z"/>
	<path fill="#FFFFFF" d="M9.756,28.227v-3.789c2.63-0.078,4.471-0.195,5.522-0.352c1.676-0.247,3.04-0.742,4.092-1.484
		c0.721-0.508,1.267-1.185,1.637-2.031c0.214-0.508,0.321-0.885,0.321-1.133h6.973v28.32h-8.555V28.227H9.756z"/>
	<path fill="#FFFFFF" d="M64.342,41.664h-4.805v6.094h-8.174v-6.094H34.547v-4.863l15.615-17.188h9.375v17.695h4.805V41.664z
		 M51.363,37.309V25.11L40.76,37.309H51.363z"/>
	<path fill="#FFFFFF" d="M40.02,51.564h3.867l-6.073,16.193h-3.517l-6.024-16.193h3.977l3.867,12.293L40.02,51.564z"/>
</g>
</svg>
