<?xml version="1.0" encoding="utf-8"?>
<!-- Generator: Adobe Illustrator 15.0.0, SVG Export Plug-In . SVG Version: 6.00 Build 0)  -->
<!DOCTYPE svg PUBLIC "-//W3C//DTD SVG 1.1//EN" "http://www.w3.org/Graphics/SVG/1.1/DTD/svg11.dtd">
<svg version="1.1" id="Layer_1" xmlns="http://www.w3.org/2000/svg" xmlns:xlink="http://www.w3.org/1999/xlink" x="0px" y="0px"
	 width="72px" height="72px" viewBox="0 0 72 72" enable-background="new 0 0 72 72" xml:space="preserve">
<rect width="72" height="72"/>
<g>
	<path fill="#FFFFFF" d="M34.055,4.242v2.039H23.719v9.477h-7.266V6.281H6.07V4.242H34.055z"/>
	<path fill="#FFFFFF" d="M58.488,4.242h7.5L54.21,15.758h-6.819L35.707,4.242h7.711l7.5,8.742L58.488,4.242z"/>
	<path fill="#FFFFFF" d="M27.475,18.969h10.171v28.789h-6.587V28.285c0-0.56,0.008-1.344,0.022-2.354
		c0.016-1.009,0.023-1.787,0.023-2.334l-6.41,24.16h-6.87l-6.364-24.16c0,0.547,0.008,1.325,0.023,2.334
		c0.015,1.009,0.022,1.794,0.022,2.354v19.473H4.919V18.969h10.286l6.157,22.637L27.475,18.969z"/>
	<path fill="#FFFFFF" d="M51.509,18.969h7.998l11.968,28.789H63.81l-2.231-5.918H49.12l-2.293,5.918h-7.394L51.509,18.969z
		 M51.043,36.879h8.664l-4.273-11.328L51.043,36.879z"/>
	<path fill="#FFFFFF" d="M39.352,51.916c1.249,0.373,2.261,1.058,3.035,2.054c0.621,0.806,1.044,1.678,1.271,2.615
		c0.226,0.938,0.338,1.831,0.338,2.681c0,2.153-0.476,3.977-1.427,5.471c-1.29,2.015-3.281,3.021-5.975,3.021h-7.681V51.564h7.681
		C37.698,51.579,38.617,51.695,39.352,51.916z M32.527,54.377v10.568h3.438c1.759,0,2.985-0.787,3.68-2.362
		c0.379-0.864,0.568-1.893,0.568-3.087c0-1.648-0.284-2.913-0.854-3.796c-0.568-0.883-1.7-1.323-3.395-1.323H32.527z"/>
</g>
</svg>
