<?xml version="1.0" encoding="utf-8"?>
<!-- Generator: Adobe Illustrator 15.0.0, SVG Export Plug-In . SVG Version: 6.00 Build 0)  -->
<!DOCTYPE svg PUBLIC "-//W3C//DTD SVG 1.1//EN" "http://www.w3.org/Graphics/SVG/1.1/DTD/svg11.dtd">
<svg version="1.1" id="Layer_1" xmlns="http://www.w3.org/2000/svg" xmlns:xlink="http://www.w3.org/1999/xlink" x="0px" y="0px"
	 width="72px" height="72px" viewBox="0 0 72 72" enable-background="new 0 0 72 72" xml:space="preserve">
<rect width="72" height="72"/>
<g>
	<path fill="#FFFFFF" d="M34.055,4.242v2.039H23.719v9.477h-7.266V6.281H6.07V4.242H34.055z"/>
	<path fill="#FFFFFF" d="M58.488,4.242h7.5L54.21,15.758h-6.819L35.707,4.242h7.711l7.5,8.742L58.488,4.242z"/>
	<path fill="#FFFFFF" d="M27.475,18.969h10.171v28.789h-6.587V28.285c0-0.56,0.008-1.344,0.022-2.354
		c0.016-1.009,0.023-1.787,0.023-2.334l-6.41,24.16h-6.87l-6.364-24.16c0,0.547,0.008,1.325,0.023,2.334
		c0.015,1.009,0.022,1.794,0.022,2.354v19.473H4.919V18.969h10.286l6.157,22.637L27.475,18.969z"/>
	<path fill="#FFFFFF" d="M51.509,18.969h7.998l11.968,28.789H63.81l-2.231-5.918H49.12l-2.293,5.918h-7.394L51.509,18.969z
		 M51.043,36.879h8.664l-4.273-11.328L51.043,36.879z"/>
	<path fill="#FFFFFF" d="M13.782,51.564h3.723v13.282h8.895v2.911H13.782V51.564z"/>
	<path fill="#FFFFFF" d="M31.584,62.759c0.115,0.74,0.341,1.293,0.679,1.659c0.616,0.667,1.674,1,3.171,1
		c0.896,0,1.625-0.088,2.184-0.264c1.062-0.337,1.592-0.963,1.592-1.879c0-0.534-0.26-0.948-0.779-1.241
		c-0.521-0.286-1.345-0.538-2.474-0.759l-1.928-0.384c-1.896-0.381-3.198-0.795-3.907-1.241c-1.2-0.748-1.801-1.916-1.801-3.505
		c0-1.45,0.588-2.655,1.762-3.614c1.175-0.96,2.899-1.439,5.176-1.439c1.899,0,3.521,0.452,4.862,1.356s2.045,2.218,2.11,3.938
		h-3.577c-0.066-0.974-0.545-1.666-1.438-2.076c-0.595-0.271-1.333-0.406-2.217-0.406c-0.983,0-1.768,0.176-2.354,0.527
		s-0.88,0.842-0.88,1.472c0,0.579,0.289,1.011,0.867,1.297c0.372,0.19,1.161,0.414,2.367,0.67l3.126,0.67
		c1.37,0.293,2.396,0.686,3.081,1.176c1.062,0.762,1.593,1.864,1.593,3.307c0,1.479-0.63,2.708-1.888,3.687
		c-1.258,0.978-3.035,1.467-5.332,1.467c-2.345,0-4.189-0.482-5.533-1.445s-2.015-2.287-2.015-3.972H31.584z"/>
	<path fill="#FFFFFF" d="M55.832,51.564h3.867l-6.073,16.193h-3.517l-6.024-16.193h3.977l3.867,12.293L55.832,51.564z"/>
</g>
</svg>
