<?xml version="1.0" encoding="utf-8"?>
<!-- Generator: Adobe Illustrator 15.0.0, SVG Export Plug-In . SVG Version: 6.00 Build 0)  -->
<!DOCTYPE svg PUBLIC "-//W3C//DTD SVG 1.1//EN" "http://www.w3.org/Graphics/SVG/1.1/DTD/svg11.dtd">
<svg version="1.1" id="Layer_1" xmlns="http://www.w3.org/2000/svg" xmlns:xlink="http://www.w3.org/1999/xlink" x="0px" y="0px"
	 width="72px" height="72px" viewBox="0 0 72 72" enable-background="new 0 0 72 72" xml:space="preserve">
<rect width="72" height="72"/>
<g>
	<path fill="#FFFFFF" d="M34.055,4.242v2.039H23.719v9.477h-7.266V6.281H6.07V4.242H34.055z"/>
	<path fill="#FFFFFF" d="M58.488,4.242h7.5L54.21,15.758h-6.819L35.707,4.242h7.711l7.5,8.742L58.488,4.242z"/>
	<path fill="#FFFFFF" d="M29.477,35.297c-1.98,1.406-4.809,2.109-8.483,2.109H13.95v10.352H6.927V18.969h14.524
		c3.349,0,6.019,0.742,8.01,2.227c1.99,1.484,2.985,3.783,2.985,6.895C32.446,31.488,31.456,33.891,29.477,35.297z M24.081,24.926
		c-0.895-0.638-2.148-0.957-3.762-0.957H13.95v8.477h6.369c1.613,0,2.867-0.345,3.762-1.035c0.896-0.69,1.344-1.784,1.344-3.281
		C25.425,26.632,24.977,25.564,24.081,24.926z"/>
	<path fill="#FFFFFF" d="M58.508,27.953c-0.535-1.966-1.844-3.34-3.924-4.121c-1.163-0.43-2.455-0.645-3.879-0.645
		c-2.723,0-4.961,0.874-6.712,2.622c-1.752,1.748-2.628,4.376-2.628,7.885c0,3.535,0.948,6.037,2.846,7.505
		c1.896,1.469,4.054,2.203,6.472,2.203c2.371,0,4.314-0.579,5.829-1.737s2.447-2.675,2.8-4.552h-7.825v-4.805h14.09v15.449h-4.682
		l-0.711-3.594c-1.362,1.361-2.586,2.32-3.672,2.878c-1.867,0.972-4.162,1.458-6.885,1.458c-4.483,0-8.155-1.32-11.016-3.963
		c-2.983-2.654-4.475-6.284-4.475-10.891c0-4.658,1.506-8.393,4.521-11.204c3.014-2.811,6.999-4.216,11.956-4.216
		c4.3,0,7.753,0.928,10.362,2.783c2.608,1.855,4.104,4.17,4.486,6.943H58.508z"/>
	<path fill="#FFFFFF" d="M31.098,51.916c1.249,0.373,2.261,1.058,3.035,2.054c0.621,0.806,1.044,1.678,1.271,2.615
		c0.226,0.938,0.338,1.831,0.338,2.681c0,2.153-0.476,3.977-1.427,5.471c-1.29,2.015-3.281,3.021-5.975,3.021h-7.681V51.564h7.681
		C29.444,51.579,30.363,51.695,31.098,51.916z M24.273,54.377v10.568h3.438c1.759,0,2.985-0.787,3.68-2.362
		c0.379-0.864,0.568-1.893,0.568-3.087c0-1.648-0.284-2.913-0.854-3.796c-0.568-0.883-1.7-1.323-3.395-1.323H24.273z"/>
	<path fill="#FFFFFF" d="M48.957,51.564h3.867l-6.073,16.193h-3.517L37.21,51.564h3.977l3.867,12.293L48.957,51.564z"/>
</g>
</svg>
